<svg width="25" height="25" viewBox="0 0 25 25" fill="none" xmlns="http://www.w3.org/2000/svg">
<path d="M9.77 3.10188L4.38 7.30188C3.48 8.00188 2.75 9.49188 2.75 10.6219V18.0319C2.75 20.3519 4.64 22.2519 6.96 22.2519H18.54C20.86 22.2519 22.75 20.3519 22.75 18.0419V10.7619C22.75 9.55188 21.94 8.00188 20.95 7.31188L14.77 2.98188C13.37 2.00188 11.12 2.05188 9.77 3.10188Z" stroke="#252525" stroke-width="1.5" stroke-linecap="round" stroke-linejoin="round"/>
<path d="M9.77 3.10188L4.38 7.30188C3.48 8.00188 2.75 9.49188 2.75 10.6219V18.0319C2.75 20.3519 4.64 22.2519 6.96 22.2519H18.54C20.86 22.2519 22.75 20.3519 22.75 18.0419V10.7619C22.75 9.55188 21.94 8.00188 20.95 7.31188L14.77 2.98188C13.37 2.00188 11.12 2.05188 9.77 3.10188Z" stroke="black" stroke-opacity="0.2" stroke-width="1.5" stroke-linecap="round" stroke-linejoin="round"/>
<path d="M9.77 3.10188L4.38 7.30188C3.48 8.00188 2.75 9.49188 2.75 10.6219V18.0319C2.75 20.3519 4.64 22.2519 6.96 22.2519H18.54C20.86 22.2519 22.75 20.3519 22.75 18.0419V10.7619C22.75 9.55188 21.94 8.00188 20.95 7.31188L14.77 2.98188C13.37 2.00188 11.12 2.05188 9.77 3.10188Z" stroke="black" stroke-opacity="0.2" stroke-width="1.5" stroke-linecap="round" stroke-linejoin="round"/>
<path d="M9.77 3.10188L4.38 7.30188C3.48 8.00188 2.75 9.49188 2.75 10.6219V18.0319C2.75 20.3519 4.64 22.2519 6.96 22.2519H18.54C20.86 22.2519 22.75 20.3519 22.75 18.0419V10.7619C22.75 9.55188 21.94 8.00188 20.95 7.31188L14.77 2.98188C13.37 2.00188 11.12 2.05188 9.77 3.10188Z" stroke="black" stroke-opacity="0.2" stroke-width="1.5" stroke-linecap="round" stroke-linejoin="round"/>
<path d="M12.75 18.252V15.252" stroke="#252525" stroke-width="1.5" stroke-linecap="round" stroke-linejoin="round"/>
<path d="M12.75 18.252V15.252" stroke="black" stroke-opacity="0.2" stroke-width="1.5" stroke-linecap="round" stroke-linejoin="round"/>
<path d="M12.75 18.252V15.252" stroke="black" stroke-opacity="0.2" stroke-width="1.5" stroke-linecap="round" stroke-linejoin="round"/>
<path d="M12.75 18.252V15.252" stroke="black" stroke-opacity="0.2" stroke-width="1.5" stroke-linecap="round" stroke-linejoin="round"/>
</svg>
