<svg width="16" height="17" viewBox="0 0 16 17" fill="none" xmlns="http://www.w3.org/2000/svg">
<path d="M5.64392 7.91152C6.39925 7.15619 7.71658 7.15619 8.47192 7.91152L8.94325 8.38285L9.88592 7.44019L9.41458 6.96885C8.78592 6.33952 7.94859 5.99219 7.05792 5.99219C6.16725 5.99219 5.32992 6.33952 4.70125 6.96885L3.28658 8.38285C2.66278 9.00866 2.3125 9.85624 2.3125 10.7399C2.3125 11.6235 2.66278 12.471 3.28658 13.0969C3.59583 13.4065 3.96323 13.6521 4.36766 13.8193C4.7721 13.9866 5.20559 14.0723 5.64325 14.0715C6.08103 14.0724 6.51466 13.9868 6.91922 13.8195C7.32378 13.6523 7.69128 13.4067 8.00058 13.0969L8.47192 12.6255L7.52925 11.6829L7.05792 12.1542C6.68223 12.5282 6.1737 12.7382 5.64358 12.7382C5.11347 12.7382 4.60494 12.5282 4.22925 12.1542C3.85492 11.7787 3.64472 11.2701 3.64472 10.7399C3.64472 10.2096 3.85492 9.70104 4.22925 9.32552L5.64392 7.91152Z" fill="#7C7CFF"/>
<path d="M7.99861 3.66897L7.52728 4.1403L8.46995 5.08297L8.94128 4.61164C9.31697 4.23763 9.8255 4.02766 10.3556 4.02766C10.8857 4.02766 11.3943 4.23763 11.7699 4.61164C12.1443 4.98715 12.3545 5.49575 12.3545 6.02597C12.3545 6.55619 12.1443 7.06479 11.7699 7.4403L10.3553 8.8543C9.59995 9.60964 8.28261 9.60964 7.52728 8.8543L7.05595 8.38297L6.11328 9.32564L6.58461 9.79697C7.21328 10.4263 8.05061 10.7736 8.94128 10.7736C9.83195 10.7736 10.6693 10.4263 11.2979 9.79697L12.7126 8.38297C13.3364 7.75716 13.6867 6.90958 13.6867 6.02597C13.6867 5.14236 13.3364 4.29478 12.7126 3.66897C12.087 3.04484 11.2393 2.69434 10.3556 2.69434C9.47189 2.69434 8.62425 3.04484 7.99861 3.66897Z" fill="#7C7CFF"/>
</svg>
