<svg width="91" height="35" viewBox="0 0 91 35" fill="none" xmlns="http://www.w3.org/2000/svg">
<path d="M35.7795 23.8371C33.6529 23.8371 31.9808 23.2323 30.7636 22.0218C29.5463 20.8117 28.9375 19.0429 28.9375 16.7138V7.56836H31.249V16.6219C31.249 18.4142 31.6452 19.724 32.4394 20.5507C33.2327 21.3779 34.3542 21.7915 35.8026 21.7915C37.2667 21.7915 38.3952 21.3779 39.1889 20.5507C39.9822 19.7235 40.3793 18.4142 40.3793 16.6219V7.56836H42.6215V16.7138C42.6215 19.0424 42.0163 20.8117 40.807 22.0218C39.5967 23.2318 37.9208 23.8371 35.7795 23.8371Z" fill="white"/>
<path d="M56.8971 23.6512H54.5542V16.594C54.5542 14.8872 53.4405 13.7341 51.7702 13.7341C50.0768 13.7341 48.8703 14.9106 48.8703 16.6634V23.6516H46.5273V11.8894H48.8703V13.1808C49.7056 12.212 50.9353 11.6357 52.3504 11.6357C55.065 11.6357 56.8976 13.6192 56.8976 16.1331L56.8971 23.6512Z" fill="white"/>
<path d="M59.4141 8.84568C59.4141 8.08464 60.0405 7.46191 60.8296 7.46191C61.5952 7.46191 62.1985 8.08464 62.1985 8.84568C62.1985 9.63017 61.5952 10.2529 60.8296 10.2529C60.0409 10.2529 59.4141 9.63017 59.4141 8.84568ZM61.99 23.6525H59.6466V11.8903H61.99V23.6525Z" fill="white"/>
<path d="M63.8594 11.9129H66.133V9.65276C66.133 8.06127 67.1306 6.9082 68.9867 6.9082H70.982V8.96064H69.381C68.824 8.96064 68.4759 9.28372 68.4759 9.92941V11.9129H70.982V13.9428H68.4759V23.6526H66.133V13.9428H63.8594V11.9129Z" fill="white"/>
<path d="M76.7157 23.4211L71.7969 11.8896H74.3261L77.9218 20.6077L81.402 11.8896H83.8383L78.177 25.7971C77.435 27.5495 76.5067 28.288 74.7667 28.288H73.2124V26.3045H74.3025C75.1841 26.3045 75.695 25.9584 76.0657 25.0361L76.7157 23.4211Z" fill="white"/>
<path d="M15.5886 11.7982C16.4833 11.7982 17.2085 11.1099 17.2085 10.2609C17.2085 9.41189 16.4833 8.72363 15.5886 8.72363C14.694 8.72363 13.9688 9.41189 13.9688 10.2609C13.9688 11.1099 14.694 11.7982 15.5886 11.7982Z" fill="white"/>
<path d="M10.78 13.6898C11.6747 13.6898 12.3999 13.0015 12.3999 12.1525C12.3999 11.3035 11.6747 10.6152 10.78 10.6152C9.8854 10.6152 9.16016 11.3035 9.16016 12.1525C9.16016 13.0015 9.8854 13.6898 10.78 13.6898Z" fill="white"/>
<path d="M8.78395 18.2532C9.67859 18.2532 10.4038 17.565 10.4038 16.716C10.4038 15.867 9.67859 15.1787 8.78395 15.1787C7.88931 15.1787 7.16406 15.867 7.16406 16.716C7.16406 17.565 7.88931 18.2532 8.78395 18.2532Z" fill="white"/>
<path d="M10.78 22.8187C11.6747 22.8187 12.3999 22.1304 12.3999 21.2814C12.3999 20.4324 11.6747 19.7441 10.78 19.7441C9.8854 19.7441 9.16016 20.4324 9.16016 21.2814C9.16016 22.1304 9.8854 22.8187 10.78 22.8187Z" fill="white"/>
<path d="M15.5886 24.7103C16.4833 24.7103 17.2085 24.022 17.2085 23.173C17.2085 22.324 16.4833 21.6357 15.5886 21.6357C14.694 21.6357 13.9688 22.324 13.9688 23.173C13.9688 24.022 14.694 24.7103 15.5886 24.7103Z" fill="white"/>
<path d="M20.3972 22.8187C21.2919 22.8187 22.0171 22.1304 22.0171 21.2814C22.0171 20.4324 21.2919 19.7441 20.3972 19.7441C19.5026 19.7441 18.7773 20.4324 18.7773 21.2814C18.7773 22.1304 19.5026 22.8187 20.3972 22.8187Z" fill="white"/>
<path d="M22.3933 18.2532C23.288 18.2532 24.0132 17.565 24.0132 16.716C24.0132 15.867 23.288 15.1787 22.3933 15.1787C21.4987 15.1787 20.7734 15.867 20.7734 16.716C20.7734 17.565 21.4987 18.2532 22.3933 18.2532Z" fill="white"/>
<path d="M20.3972 13.6898C21.2919 13.6898 22.0171 13.0015 22.0171 12.1525C22.0171 11.3035 21.2919 10.6152 20.3972 10.6152C19.5026 10.6152 18.7773 11.3035 18.7773 12.1525C18.7773 13.0015 19.5026 13.6898 20.3972 13.6898Z" fill="white"/>
</svg>
