<svg width="14" height="14" viewBox="0 0 14 14" fill="none" xmlns="http://www.w3.org/2000/svg">
<path d="M5.39341 7.57101C5.73441 7.57101 6.06143 7.70647 6.30255 7.94759C6.54367 8.1887 6.67913 8.51573 6.67913 8.85672V11.9996C6.67913 12.3406 6.54367 12.6676 6.30255 12.9087C6.06143 13.1498 5.73441 13.2853 5.39341 13.2853H2.25056C1.90957 13.2853 1.58254 13.1498 1.34142 12.9087C1.1003 12.6676 0.964844 12.3406 0.964844 11.9996V8.85672C0.964844 8.51573 1.1003 8.1887 1.34142 7.94759C1.58254 7.70647 1.90957 7.57101 2.25056 7.57101H5.39341ZM9.7277 7.57101V9.47558H11.6317V11.3807H9.7277V13.2847H7.82199V11.3802H9.72656V9.47558H7.82199V7.57101H9.7277ZM13.5363 11.3802V13.2853H11.6317V11.3807L13.5363 11.3802ZM5.39341 8.42815H2.25056C2.13689 8.42815 2.02788 8.47331 1.94751 8.55368C1.86714 8.63405 1.82199 8.74306 1.82199 8.85672V11.9996C1.82199 12.2362 2.01399 12.4282 2.25056 12.4282H5.39341C5.50708 12.4282 5.61609 12.383 5.69646 12.3026C5.77683 12.2223 5.82199 12.1132 5.82199 11.9996V8.85672C5.82199 8.74306 5.77683 8.63405 5.69646 8.55368C5.61609 8.47331 5.50708 8.42815 5.39341 8.42815ZM4.67913 9.57101V11.2853H2.96484V9.57101H4.67913ZM13.5363 7.57101V9.47558H11.6317V7.57101H13.5363ZM5.39341 0.713867C5.73441 0.713867 6.06143 0.849326 6.30255 1.09044C6.54367 1.33156 6.67913 1.65859 6.67913 1.99958V5.14244C6.67913 5.48343 6.54367 5.81046 6.30255 6.05158C6.06143 6.29269 5.73441 6.42815 5.39341 6.42815H2.25056C1.90957 6.42815 1.58254 6.29269 1.34142 6.05158C1.1003 5.81046 0.964844 5.48343 0.964844 5.14244V1.99958C0.964844 1.65859 1.1003 1.33156 1.34142 1.09044C1.58254 0.849326 1.90957 0.713867 2.25056 0.713867H5.39341ZM12.2506 0.713867C12.5915 0.713867 12.9186 0.849326 13.1597 1.09044C13.4008 1.33156 13.5363 1.65859 13.5363 1.99958V5.14244C13.5363 5.48343 13.4008 5.81046 13.1597 6.05158C12.9186 6.29269 12.5915 6.42815 12.2506 6.42815H9.1077C8.76671 6.42815 8.43968 6.29269 8.19856 6.05158C7.95745 5.81046 7.82199 5.48343 7.82199 5.14244V1.99958C7.82199 1.65859 7.95745 1.33156 8.19856 1.09044C8.43968 0.849326 8.76671 0.713867 9.1077 0.713867H12.2506ZM5.39341 1.57101H2.25056C2.13689 1.57101 2.02788 1.61616 1.94751 1.69654C1.86714 1.77691 1.82199 1.88592 1.82199 1.99958V5.14244C1.82199 5.37901 2.01399 5.57101 2.25056 5.57101H5.39341C5.50708 5.57101 5.61609 5.52586 5.69646 5.44548C5.77683 5.36511 5.82199 5.2561 5.82199 5.14244V1.99958C5.82199 1.88592 5.77683 1.77691 5.69646 1.69654C5.61609 1.61616 5.50708 1.57101 5.39341 1.57101ZM12.2506 1.57101H9.1077C8.99404 1.57101 8.88503 1.61616 8.80465 1.69654C8.72428 1.77691 8.67913 1.88592 8.67913 1.99958V5.14244C8.67913 5.37901 8.87113 5.57101 9.1077 5.57101H12.2506C12.3642 5.57101 12.4732 5.52586 12.5536 5.44548C12.634 5.36511 12.6791 5.2561 12.6791 5.14244V1.99958C12.6791 1.88592 12.634 1.77691 12.5536 1.69654C12.4732 1.61616 12.3642 1.57101 12.2506 1.57101ZM4.67913 2.71387V4.42815H2.96484V2.71387H4.67913ZM11.5363 2.71387V4.42815H9.82199V2.71387H11.5363Z" fill="#BFBFBF"/>
<path d="M5.39341 7.57101C5.73441 7.57101 6.06143 7.70647 6.30255 7.94759C6.54367 8.1887 6.67913 8.51573 6.67913 8.85672V11.9996C6.67913 12.3406 6.54367 12.6676 6.30255 12.9087C6.06143 13.1498 5.73441 13.2853 5.39341 13.2853H2.25056C1.90957 13.2853 1.58254 13.1498 1.34142 12.9087C1.1003 12.6676 0.964844 12.3406 0.964844 11.9996V8.85672C0.964844 8.51573 1.1003 8.1887 1.34142 7.94759C1.58254 7.70647 1.90957 7.57101 2.25056 7.57101H5.39341ZM9.7277 7.57101V9.47558H11.6317V11.3807H9.7277V13.2847H7.82199V11.3802H9.72656V9.47558H7.82199V7.57101H9.7277ZM13.5363 11.3802V13.2853H11.6317V11.3807L13.5363 11.3802ZM5.39341 8.42815H2.25056C2.13689 8.42815 2.02788 8.47331 1.94751 8.55368C1.86714 8.63405 1.82199 8.74306 1.82199 8.85672V11.9996C1.82199 12.2362 2.01399 12.4282 2.25056 12.4282H5.39341C5.50708 12.4282 5.61609 12.383 5.69646 12.3026C5.77683 12.2223 5.82199 12.1132 5.82199 11.9996V8.85672C5.82199 8.74306 5.77683 8.63405 5.69646 8.55368C5.61609 8.47331 5.50708 8.42815 5.39341 8.42815ZM4.67913 9.57101V11.2853H2.96484V9.57101H4.67913ZM13.5363 7.57101V9.47558H11.6317V7.57101H13.5363ZM5.39341 0.713867C5.73441 0.713867 6.06143 0.849326 6.30255 1.09044C6.54367 1.33156 6.67913 1.65859 6.67913 1.99958V5.14244C6.67913 5.48343 6.54367 5.81046 6.30255 6.05158C6.06143 6.29269 5.73441 6.42815 5.39341 6.42815H2.25056C1.90957 6.42815 1.58254 6.29269 1.34142 6.05158C1.1003 5.81046 0.964844 5.48343 0.964844 5.14244V1.99958C0.964844 1.65859 1.1003 1.33156 1.34142 1.09044C1.58254 0.849326 1.90957 0.713867 2.25056 0.713867H5.39341ZM12.2506 0.713867C12.5915 0.713867 12.9186 0.849326 13.1597 1.09044C13.4008 1.33156 13.5363 1.65859 13.5363 1.99958V5.14244C13.5363 5.48343 13.4008 5.81046 13.1597 6.05158C12.9186 6.29269 12.5915 6.42815 12.2506 6.42815H9.1077C8.76671 6.42815 8.43968 6.29269 8.19856 6.05158C7.95745 5.81046 7.82199 5.48343 7.82199 5.14244V1.99958C7.82199 1.65859 7.95745 1.33156 8.19856 1.09044C8.43968 0.849326 8.76671 0.713867 9.1077 0.713867H12.2506ZM5.39341 1.57101H2.25056C2.13689 1.57101 2.02788 1.61616 1.94751 1.69654C1.86714 1.77691 1.82199 1.88592 1.82199 1.99958V5.14244C1.82199 5.37901 2.01399 5.57101 2.25056 5.57101H5.39341C5.50708 5.57101 5.61609 5.52586 5.69646 5.44548C5.77683 5.36511 5.82199 5.2561 5.82199 5.14244V1.99958C5.82199 1.88592 5.77683 1.77691 5.69646 1.69654C5.61609 1.61616 5.50708 1.57101 5.39341 1.57101ZM12.2506 1.57101H9.1077C8.99404 1.57101 8.88503 1.61616 8.80465 1.69654C8.72428 1.77691 8.67913 1.88592 8.67913 1.99958V5.14244C8.67913 5.37901 8.87113 5.57101 9.1077 5.57101H12.2506C12.3642 5.57101 12.4732 5.52586 12.5536 5.44548C12.634 5.36511 12.6791 5.2561 12.6791 5.14244V1.99958C12.6791 1.88592 12.634 1.77691 12.5536 1.69654C12.4732 1.61616 12.3642 1.57101 12.2506 1.57101ZM4.67913 2.71387V4.42815H2.96484V2.71387H4.67913ZM11.5363 2.71387V4.42815H9.82199V2.71387H11.5363Z" fill="black" fill-opacity="0.2"/>
<path d="M5.39341 7.57101C5.73441 7.57101 6.06143 7.70647 6.30255 7.94759C6.54367 8.1887 6.67913 8.51573 6.67913 8.85672V11.9996C6.67913 12.3406 6.54367 12.6676 6.30255 12.9087C6.06143 13.1498 5.73441 13.2853 5.39341 13.2853H2.25056C1.90957 13.2853 1.58254 13.1498 1.34142 12.9087C1.1003 12.6676 0.964844 12.3406 0.964844 11.9996V8.85672C0.964844 8.51573 1.1003 8.1887 1.34142 7.94759C1.58254 7.70647 1.90957 7.57101 2.25056 7.57101H5.39341ZM9.7277 7.57101V9.47558H11.6317V11.3807H9.7277V13.2847H7.82199V11.3802H9.72656V9.47558H7.82199V7.57101H9.7277ZM13.5363 11.3802V13.2853H11.6317V11.3807L13.5363 11.3802ZM5.39341 8.42815H2.25056C2.13689 8.42815 2.02788 8.47331 1.94751 8.55368C1.86714 8.63405 1.82199 8.74306 1.82199 8.85672V11.9996C1.82199 12.2362 2.01399 12.4282 2.25056 12.4282H5.39341C5.50708 12.4282 5.61609 12.383 5.69646 12.3026C5.77683 12.2223 5.82199 12.1132 5.82199 11.9996V8.85672C5.82199 8.74306 5.77683 8.63405 5.69646 8.55368C5.61609 8.47331 5.50708 8.42815 5.39341 8.42815ZM4.67913 9.57101V11.2853H2.96484V9.57101H4.67913ZM13.5363 7.57101V9.47558H11.6317V7.57101H13.5363ZM5.39341 0.713867C5.73441 0.713867 6.06143 0.849326 6.30255 1.09044C6.54367 1.33156 6.67913 1.65859 6.67913 1.99958V5.14244C6.67913 5.48343 6.54367 5.81046 6.30255 6.05158C6.06143 6.29269 5.73441 6.42815 5.39341 6.42815H2.25056C1.90957 6.42815 1.58254 6.29269 1.34142 6.05158C1.1003 5.81046 0.964844 5.48343 0.964844 5.14244V1.99958C0.964844 1.65859 1.1003 1.33156 1.34142 1.09044C1.58254 0.849326 1.90957 0.713867 2.25056 0.713867H5.39341ZM12.2506 0.713867C12.5915 0.713867 12.9186 0.849326 13.1597 1.09044C13.4008 1.33156 13.5363 1.65859 13.5363 1.99958V5.14244C13.5363 5.48343 13.4008 5.81046 13.1597 6.05158C12.9186 6.29269 12.5915 6.42815 12.2506 6.42815H9.1077C8.76671 6.42815 8.43968 6.29269 8.19856 6.05158C7.95745 5.81046 7.82199 5.48343 7.82199 5.14244V1.99958C7.82199 1.65859 7.95745 1.33156 8.19856 1.09044C8.43968 0.849326 8.76671 0.713867 9.1077 0.713867H12.2506ZM5.39341 1.57101H2.25056C2.13689 1.57101 2.02788 1.61616 1.94751 1.69654C1.86714 1.77691 1.82199 1.88592 1.82199 1.99958V5.14244C1.82199 5.37901 2.01399 5.57101 2.25056 5.57101H5.39341C5.50708 5.57101 5.61609 5.52586 5.69646 5.44548C5.77683 5.36511 5.82199 5.2561 5.82199 5.14244V1.99958C5.82199 1.88592 5.77683 1.77691 5.69646 1.69654C5.61609 1.61616 5.50708 1.57101 5.39341 1.57101ZM12.2506 1.57101H9.1077C8.99404 1.57101 8.88503 1.61616 8.80465 1.69654C8.72428 1.77691 8.67913 1.88592 8.67913 1.99958V5.14244C8.67913 5.37901 8.87113 5.57101 9.1077 5.57101H12.2506C12.3642 5.57101 12.4732 5.52586 12.5536 5.44548C12.634 5.36511 12.6791 5.2561 12.6791 5.14244V1.99958C12.6791 1.88592 12.634 1.77691 12.5536 1.69654C12.4732 1.61616 12.3642 1.57101 12.2506 1.57101ZM4.67913 2.71387V4.42815H2.96484V2.71387H4.67913ZM11.5363 2.71387V4.42815H9.82199V2.71387H11.5363Z" fill="black" fill-opacity="0.2"/>
</svg>
